<?xml version="1.0" standalone="no"?>
<!DOCTYPE svg PUBLIC "-//W3C//DTD SVG 20010904//EN"
 "http://www.w3.org/TR/2001/REC-SVG-20010904/DTD/svg10.dtd">
<svg version="1.0" xmlns="http://www.w3.org/2000/svg"
 width="512.000000pt" height="512.000000pt" viewBox="0 0 512.000000 512.000000"
 preserveAspectRatio="xMidYMid meet">

<g transform="translate(0.000000,512.000000) scale(0.100000,-0.100000)"
fill="#000000" stroke="none">
<path d="M1660 4929 c-180 -26 -347 -151 -438 -328 -54 -103 -79 -191 -94
-322 -15 -131 -2 -291 38 -468 20 -88 186 -705 208 -772 3 -8 -26 -38 -70 -74
-203 -162 -394 -447 -484 -724 -177 -544 -29 -1148 385 -1567 242 -244 560
-397 960 -459 145 -23 537 -32 689 -15 619 66 1104 349 1342 786 58 106 116
270 146 407 29 137 32 435 5 572 -84 427 -269 761 -536 967 l-34 26 58 163
c258 733 260 740 260 984 0 172 -2 184 -28 260 -53 149 -127 250 -238 324
-260 174 -603 61 -821 -269 -61 -93 -180 -327 -303 -597 -43 -95 -82 -173 -85
-173 -4 0 -12 33 -19 73 -17 105 -78 363 -118 502 -56 194 -115 307 -230 440
-168 195 -391 294 -593 264z m237 -29 c23 -7 40 -17 37 -21 -3 -5 2 -6 10 -3
18 7 99 -34 91 -46 -3 -5 0 -7 8 -4 7 2 25 -5 38 -16 13 -12 18 -19 12 -15
-18 9 -16 0 4 -16 11 -10 14 -10 9 -1 -18 30 16 7 76 -51 80 -79 170 -196 163
-214 -2 -8 0 -11 5 -8 13 8 65 -99 101 -208 53 -163 153 -590 148 -636 -1 -9
-1 -23 0 -31 1 -13 2 -13 11 0 8 11 12 12 18 3 5 -9 11 -6 21 8 7 12 8 18 2
14 -13 -7 -14 -3 -5 19 3 9 11 13 17 9 5 -3 7 -1 4 5 -10 15 3 43 16 35 6 -4
7 -1 2 6 -9 15 24 93 36 85 5 -3 6 3 2 12 -5 13 -3 15 7 9 9 -5 11 -4 6 4 -10
16 13 73 27 64 5 -3 7 -1 3 5 -9 14 14 63 27 55 6 -4 7 -1 2 6 -9 15 34 113
46 105 5 -3 7 1 4 8 -6 17 147 313 162 313 6 0 15 4 20 9 5 5 2 6 -6 1 -9 -5
-12 -3 -9 6 3 8 10 14 16 14 5 0 14 4 19 9 5 5 3 6 -4 2 -50 -29 74 122 150
182 72 58 143 96 159 86 6 -4 8 -3 5 4 -12 17 82 44 179 49 68 4 104 1 149
-12 74 -21 137 -53 130 -65 -3 -5 0 -12 6 -16 8 -4 9 -3 5 4 -11 18 10 14 25
-5 12 -15 12 -16 -1 -8 -12 7 77 -93 124 -140 31 -31 -26 38 -68 83 -28 28
-46 52 -40 52 25 0 129 -133 118 -151 -4 -8 -3 -9 4 -5 14 8 46 -50 38 -70 -3
-8 -1 -12 4 -9 5 3 20 -27 32 -67 20 -65 23 -93 23 -248 -1 -148 -4 -189 -24
-268 -14 -58 -27 -90 -33 -86 -7 5 -8 2 -3 -5 10 -17 -15 -102 -28 -94 -6 3
-7 1 -3 -5 10 -16 -15 -93 -27 -85 -6 3 -7 1 -3 -6 10 -16 -44 -172 -57 -164
-6 3 -7 1 -3 -6 11 -16 -23 -113 -36 -105 -7 4 -8 2 -4 -4 10 -16 -4 -63 -17
-55 -6 3 -7 1 -3 -6 11 -16 -23 -113 -36 -105 -7 4 -8 2 -4 -5 4 -6 -2 -41
-15 -78 l-22 -66 44 -36 c69 -56 169 -153 169 -164 0 -5 -32 23 -72 62 -40 40
-94 89 -120 109 -32 24 -44 38 -36 43 7 5 9 12 4 16 -5 4 -11 2 -13 -5 -3 -6
-9 -9 -15 -6 -6 4 -1 13 13 21 22 13 22 13 2 8 -12 -3 -24 -1 -28 5 -10 15 46
171 58 163 6 -3 7 -1 3 6 -11 16 23 113 36 105 7 -4 8 -2 4 4 -10 16 4 63 17
55 6 -3 7 -1 3 6 -10 16 45 171 58 164 5 -3 6 -1 2 5 -4 7 13 74 38 149 82
253 103 426 71 583 -10 47 -18 95 -19 107 0 11 -4 19 -7 17 -3 -2 -13 13 -22
32 -20 41 -21 48 -6 38 22 -13 -26 58 -71 105 -25 26 -33 33 -17 16 41 -47 32
-54 -13 -10 -21 21 -37 42 -35 45 3 4 -3 14 -12 21 -14 12 -16 12 -9 0 6 -9 4
-12 -5 -9 -8 3 -14 10 -14 16 0 5 -4 14 -9 19 -5 5 -6 2 -1 -6 5 -9 3 -12 -6
-9 -8 3 -13 11 -11 17 1 7 -2 10 -7 6 -6 -3 -38 4 -73 16 -76 26 -164 22 -248
-10 -64 -25 -63 -24 -54 -9 4 7 3 8 -5 4 -6 -4 -8 -12 -5 -18 5 -8 1 -9 -10
-5 -11 5 -15 3 -10 -5 5 -8 2 -9 -9 -5 -10 4 -16 2 -14 -5 1 -6 -4 -13 -12
-16 -10 -3 -11 0 -5 9 9 16 5 13 -68 -45 -45 -36 -137 -139 -109 -122 9 6 12
5 9 -5 -3 -8 -10 -14 -16 -14 -6 0 -17 -6 -24 -14 -11 -11 -11 -13 1 -6 9 5
12 3 9 -6 -3 -8 -10 -14 -16 -14 -5 0 -14 -4 -19 -9 -5 -5 -2 -6 6 -1 9 5 12
3 9 -6 -3 -8 -10 -14 -16 -14 -5 0 -14 -4 -19 -9 -5 -5 -2 -6 6 -1 9 5 12 3 9
-6 -3 -8 -10 -13 -16 -12 -7 2 -9 -4 -5 -14 4 -10 2 -14 -5 -9 -6 3 -14 1 -18
-5 -4 -8 -3 -9 4 -5 15 9 15 1 1 -25 -5 -11 -14 -17 -19 -14 -6 4 -7 -1 -3
-11 4 -12 3 -15 -5 -10 -8 5 -10 1 -5 -10 4 -12 3 -15 -5 -10 -8 5 -10 1 -5
-10 4 -12 3 -15 -5 -10 -8 5 -10 2 -6 -9 4 -10 2 -15 -7 -13 -9 2 -13 -5 -12
-20 2 -13 -1 -21 -7 -17 -6 4 -7 -1 -3 -11 4 -12 3 -15 -5 -10 -8 5 -10 1 -5
-10 4 -12 3 -15 -5 -10 -8 5 -10 1 -5 -10 4 -12 3 -15 -5 -10 -8 5 -10 1 -5
-10 4 -12 3 -15 -5 -10 -8 5 -10 1 -5 -10 4 -12 3 -15 -5 -10 -8 5 -10 1 -5
-10 4 -12 3 -15 -5 -10 -8 5 -10 1 -5 -10 5 -13 3 -15 -7 -9 -9 6 -11 4 -5 -4
11 -18 -26 -96 -37 -79 -6 8 -7 4 -3 -11 5 -16 4 -21 -4 -17 -7 5 -8 1 -4 -10
5 -13 3 -15 -7 -9 -9 5 -11 4 -6 -4 10 -15 -13 -73 -25 -65 -5 3 -6 -3 -2 -12
4 -12 3 -15 -5 -10 -8 5 -10 1 -5 -10 5 -13 3 -15 -7 -9 -9 6 -11 4 -5 -4 9
-15 -24 -93 -36 -85 -5 3 -6 -3 -2 -12 4 -12 3 -15 -5 -10 -8 5 -10 1 -5 -10
5 -13 3 -15 -7 -9 -9 6 -11 4 -5 -4 9 -15 -24 -93 -36 -85 -5 3 -6 -3 -2 -12
4 -12 3 -15 -5 -10 -8 5 -10 1 -5 -10 4 -11 3 -15 -5 -10 -6 3 -14 1 -18 -5
-4 -8 -3 -9 4 -5 8 5 12 -2 12 -21 0 -15 12 -108 26 -206 14 -98 23 -185 20
-193 -3 -8 -17 -14 -31 -14 -17 0 -24 4 -19 12 4 7 3 8 -4 4 -13 -8 -10 -20
-58 299 -42 287 -81 485 -135 697 -22 87 -37 163 -33 169 5 8 3 9 -6 4 -10 -6
-12 -3 -7 14 3 13 3 20 -1 17 -8 -9 -43 86 -37 102 3 8 0 10 -7 6 -8 -5 -9 -2
-5 10 5 11 3 15 -5 10 -8 -5 -9 -2 -5 10 5 11 3 15 -5 10 -8 -5 -9 -2 -5 9 4
10 2 16 -5 14 -6 -1 -13 4 -16 12 -3 9 0 11 8 6 9 -6 9 -3 1 14 -7 11 -17 20
-23 18 -6 -1 -13 4 -16 12 -3 9 0 11 9 6 25 -16 -56 87 -122 154 -66 67 -141
128 -124 102 5 -9 3 -12 -6 -9 -8 3 -13 10 -12 16 2 6 -7 16 -18 23 -17 9 -20
8 -14 -2 6 -8 4 -10 -6 -6 -159 69 -251 82 -352 53 -32 -9 -63 -14 -69 -10 -7
5 -8 3 -3 -6 6 -10 4 -12 -9 -7 -11 5 -15 3 -10 -5 5 -8 2 -9 -9 -5 -10 4 -16
2 -14 -5 1 -6 -4 -13 -12 -16 -9 -3 -11 0 -6 9 5 8 4 11 -1 6 -5 -5 -9 -14 -9
-19 0 -6 -6 -13 -14 -16 -9 -3 -11 0 -6 9 14 22 -47 -26 -85 -67 -19 -21 -27
-32 -17 -25 9 7 17 9 17 3 0 -12 -25 -34 -32 -27 -3 3 -11 -2 -19 -12 -12 -14
-12 -15 0 -9 9 6 12 4 9 -5 -3 -8 -10 -14 -15 -14 -6 0 -15 -4 -20 -9 -5 -5
-2 -6 6 -1 9 5 12 3 9 -6 -3 -8 -10 -13 -16 -12 -7 2 -9 -4 -5 -14 4 -11 2
-14 -5 -9 -6 3 -16 -3 -22 -15 -8 -15 -9 -19 -1 -15 13 8 14 4 5 -18 -3 -9 -9
-14 -13 -12 -3 2 -6 -6 -7 -17 0 -12 -9 -49 -19 -82 -12 -41 -19 -107 -22
-207 -7 -205 9 -296 133 -741 31 -110 53 -205 50 -213 -3 -8 -2 -13 3 -10 12
8 35 -89 25 -105 -4 -7 -3 -9 3 -6 6 4 29 -64 56 -162 49 -177 55 -207 35
-195 -7 4 -8 3 -4 -4 5 -8 -2 -12 -22 -12 -28 0 -30 3 -51 82 -15 55 -19 84
-12 86 7 2 6 9 -3 18 -17 16 -30 19 -21 4 3 -5 1 -10 -4 -10 -6 0 -11 5 -11
12 0 15 -11 4 -14 -14 -3 -20 -16 -38 -28 -38 -6 0 -5 7 3 18 26 33 -96 -83
-154 -147 -64 -71 -108 -129 -88 -116 9 5 12 3 9 -6 -3 -8 -10 -13 -16 -12
-17 4 -61 -67 -55 -85 4 -10 2 -13 -5 -8 -6 3 -14 1 -18 -5 -5 -8 -3 -9 6 -4
8 5 11 3 8 -6 -3 -8 -10 -13 -16 -12 -7 2 -9 -4 -5 -14 4 -11 3 -14 -5 -9 -8
5 -10 1 -5 -10 4 -12 3 -15 -5 -10 -8 5 -10 1 -5 -10 4 -12 3 -15 -5 -10 -8 5
-10 1 -5 -10 4 -12 3 -15 -5 -10 -8 5 -10 1 -5 -10 4 -12 3 -15 -5 -10 -8 5
-10 1 -5 -10 4 -12 3 -15 -5 -10 -8 5 -10 1 -5 -10 5 -13 3 -15 -7 -9 -9 5
-11 4 -6 -4 10 -16 -24 -102 -37 -94 -6 3 -7 1 -3 -5 4 -6 -5 -50 -19 -98 -76
-264 -70 -585 15 -829 11 -33 18 -65 15 -73 -2 -7 -1 -10 4 -7 12 7 24 -31 15
-46 -5 -8 -3 -9 6 -4 10 6 12 4 7 -9 -4 -9 -3 -15 1 -12 5 3 18 -15 30 -40 25
-51 27 -58 11 -48 -8 4 -7 0 1 -15 6 -12 16 -18 22 -15 7 5 9 2 5 -9 -4 -10
-2 -16 5 -14 6 1 13 -4 16 -12 3 -9 0 -11 -8 -6 -9 5 -11 4 -6 -4 4 -6 12 -8
18 -5 7 5 9 1 5 -9 -4 -10 -2 -16 5 -14 6 1 13 -4 16 -12 3 -9 0 -11 -9 -6 -8
5 -11 4 -6 -1 5 -5 14 -9 19 -9 6 0 13 -6 16 -14 3 -9 0 -11 -9 -6 -7 5 2 -13
21 -39 35 -49 60 -74 60 -61 0 4 7 2 15 -5 21 -18 19 -35 -2 -19 -39 30 94
-110 156 -165 76 -67 128 -106 116 -87 -5 9 -3 12 6 9 8 -3 14 -11 14 -19 0
-8 8 -13 18 -11 10 2 16 -3 15 -10 -2 -8 4 -12 16 -10 10 2 15 -1 12 -7 -4 -5
-1 -13 5 -17 8 -5 9 -3 4 6 -5 8 -3 11 6 8 8 -3 13 -10 12 -16 -2 -7 4 -9 14
-5 11 4 14 3 9 -5 -5 -8 -1 -10 10 -5 11 4 15 3 10 -5 -3 -6 -1 -14 5 -18 8
-4 9 -3 5 4 -10 17 -3 15 58 -15 30 -15 52 -31 49 -36 -3 -6 -1 -7 6 -3 13 8
103 -23 97 -33 -2 -3 6 -6 17 -7 12 -1 76 -15 142 -32 205 -53 321 -66 595
-66 258 -1 339 7 538 50 62 14 117 22 124 18 6 -4 8 -3 5 3 -8 12 99 47 115
37 6 -4 8 -3 5 3 -8 13 78 47 94 37 8 -5 9 -3 4 6 -6 10 -4 12 9 7 11 -5 15
-3 10 5 -5 8 -2 9 10 5 10 -4 15 -3 11 3 -3 6 -4 10 -1 10 2 0 12 3 22 7 12 5
15 3 9 -6 -6 -10 -3 -11 14 -1 12 6 18 16 15 22 -5 8 -1 9 10 5 11 -5 15 -3
10 5 -5 8 -2 9 9 5 10 -4 16 -2 14 5 -1 6 4 13 12 16 9 3 11 0 6 -8 -6 -9 -3
-9 14 -1 11 7 20 17 18 23 -1 6 4 13 12 16 9 3 11 0 6 -8 -5 -9 -4 -11 4 -6 6
4 9 12 5 17 -3 6 2 9 12 7 11 -2 19 3 19 11 0 8 6 16 14 19 9 3 11 0 6 -9 -5
-8 -4 -11 1 -6 5 5 9 14 9 19 0 6 6 13 14 16 9 3 11 0 5 -9 -4 -8 11 2 35 21
24 19 41 38 39 41 -4 9 33 49 45 49 6 0 2 -10 -9 -23 -10 -12 5 1 35 28 58 55
144 154 122 141 -9 -6 -12 -5 -9 5 3 8 10 13 16 12 6 -2 21 12 33 29 13 17 17
28 10 23 -9 -5 -12 -3 -9 6 3 8 10 14 16 14 5 0 14 4 19 9 5 5 2 6 -6 1 -9 -5
-12 -3 -9 6 3 8 10 13 16 12 7 -2 9 4 5 14 -4 10 -2 14 5 9 6 -3 14 -1 18 5 4
8 3 9 -4 5 -15 -9 -15 -1 -1 25 5 11 14 17 19 14 6 -4 7 1 3 11 -5 13 -3 15 7
9 9 -6 11 -4 5 4 -9 16 25 92 38 84 6 -3 7 -1 3 6 -4 6 2 39 14 73 96 277 99
584 9 906 -11 39 -17 77 -13 84 4 6 3 8 -2 5 -5 -3 -20 22 -33 56 -13 34 -37
88 -52 119 -32 63 -35 73 -17 62 7 -4 8 -3 4 5 -4 6 -12 8 -18 5 -8 -5 -9 -1
-5 10 5 11 3 15 -5 10 -8 -5 -9 -2 -5 9 4 10 2 16 -5 14 -6 -1 -13 4 -16 12
-3 9 0 11 9 6 8 -5 11 -4 6 1 -5 5 -14 9 -19 9 -6 0 -13 6 -16 14 -3 9 0 11 9
6 8 -5 11 -4 6 1 -5 5 -14 9 -19 9 -6 0 -13 6 -16 14 -3 9 0 11 9 6 8 -5 11
-4 6 1 -5 5 -14 9 -19 9 -6 0 -13 6 -16 14 -3 10 0 11 9 5 17 -10 -33 53 -96
124 -48 53 -155 147 -141 123 6 -9 5 -12 -3 -10 -7 3 -13 9 -13 14 0 6 -9 16
-20 23 -10 7 -15 19 -12 25 4 7 3 9 -1 5 -11 -11 -16 -58 -5 -58 5 0 10 5 12
12 3 8 6 7 10 -3 7 -17 -19 -22 -38 -8 -6 5 -11 3 -11 -5 0 -9 9 -13 24 -11
13 1 23 1 23 0 0 -17 -24 -64 -31 -59 -5 3 -6 -1 -3 -9 2 -7 0 -26 -5 -40 -8
-20 -18 -27 -36 -27 -17 0 -24 4 -19 12 4 7 3 8 -4 4 -8 -5 -12 1 -12 17 0 37
21 88 33 80 6 -3 7 -1 3 6 -10 15 43 173 55 165 6 -4 6 -11 -1 -19 -7 -8 -9
-18 -6 -24 3 -5 0 -11 -6 -14 -7 -3 -3 -4 9 -4 12 1 19 5 17 9 -3 4 -2 8 2 8
14 0 82 -56 179 -149 54 -53 93 -88 86 -78 -7 9 -11 17 -8 17 7 0 97 -116 97
-125 0 -3 -5 -3 -12 1 -7 4 -8 3 -4 -5 4 -6 11 -9 16 -6 12 8 33 -33 24 -47
-4 -7 -3 -8 4 -4 14 8 46 -50 36 -66 -4 -7 -3 -8 4 -4 14 8 46 -50 38 -70 -4
-10 -2 -12 6 -8 8 5 9 2 5 -10 -4 -9 -3 -14 2 -11 12 7 24 -31 15 -46 -4 -7
-3 -9 4 -5 13 8 26 -29 16 -45 -4 -8 -3 -9 4 -5 14 9 53 -117 89 -284 23 -110
27 -148 27 -315 0 -113 -5 -216 -12 -255 -21 -108 -54 -220 -62 -215 -5 3 -6
-5 -2 -17 4 -16 2 -19 -8 -13 -9 5 -11 4 -6 -4 10 -15 -13 -83 -25 -76 -5 4
-6 -2 -2 -11 4 -12 3 -15 -5 -10 -8 4 -10 2 -6 -7 7 -19 -44 -120 -56 -112 -5
3 -8 0 -5 -7 8 -21 -90 -160 -182 -258 -47 -49 -89 -90 -94 -90 -5 0 28 38 74
83 72 74 156 177 144 177 -3 0 -24 -26 -47 -57 -24 -31 -82 -95 -129 -142 -47
-47 -77 -79 -66 -72 11 7 0 -5 -25 -27 -25 -23 -49 -42 -55 -42 -5 0 6 14 25
31 l35 30 -37 -26 c-21 -15 -36 -32 -35 -37 1 -6 -4 -13 -12 -16 -9 -3 -11 0
-6 9 5 8 4 11 -1 6 -5 -5 -9 -14 -9 -19 0 -6 -6 -13 -14 -16 -9 -3 -11 0 -6 8
5 9 4 11 -4 6 -6 -4 -9 -11 -6 -16 8 -12 -33 -33 -47 -24 -7 4 -8 3 -4 -4 8
-14 -130 -86 -146 -76 -6 4 -8 3 -5 -3 9 -14 -48 -37 -64 -27 -7 4 -10 3 -5
-4 8 -13 -29 -26 -45 -16 -8 4 -9 3 -5 -4 16 -26 -323 -109 -541 -133 -143
-15 -553 -6 -680 14 -142 24 -243 48 -237 58 3 5 -2 6 -10 3 -22 -8 -158 35
-150 48 4 7 2 8 -5 4 -14 -9 -103 23 -95 35 3 5 -3 6 -12 2 -12 -4 -15 -3 -10
5 4 8 2 10 -8 6 -20 -8 -98 34 -90 48 4 7 3 8 -4 4 -14 -9 -75 22 -67 34 3 5
0 12 -6 16 -8 5 -9 3 -4 -6 5 -8 3 -11 -6 -8 -8 3 -14 10 -14 16 0 5 -4 14 -9
19 -5 5 -6 2 -1 -6 5 -9 3 -12 -6 -9 -8 3 -14 10 -14 16 0 5 -4 14 -9 19 -5 5
-6 3 -2 -4 11 -19 -9 -16 -25 4 -10 11 -10 14 -1 9 18 -11 15 -1 -5 15 -11 10
-14 10 -9 2 17 -29 -14 -9 -90 60 -84 75 -174 169 -174 181 0 4 34 -29 76 -73
41 -44 99 -99 127 -122 39 -31 35 -26 -15 20 -37 34 -97 95 -134 134 -36 40
-63 65 -58 57 7 -13 5 -13 -9 -1 -18 14 -24 36 -7 26 16 -10 11 1 -7 16 -15
12 -16 12 -8 -1 8 -13 7 -13 -8 -1 -18 14 -24 36 -7 26 16 -10 11 1 -7 16 -15
12 -16 12 -9 -1 8 -13 7 -13 -6 0 -28 28 -98 154 -93 168 2 7 1 10 -5 7 -12
-8 -43 53 -36 71 4 10 2 12 -6 8 -8 -5 -9 -2 -5 10 4 9 3 14 -2 11 -12 -7 -24
31 -15 46 4 7 3 9 -4 5 -13 -8 -47 89 -36 105 4 7 3 9 -3 6 -11 -7 -42 107
-64 233 -18 105 -13 349 9 471 25 131 70 282 82 274 6 -3 7 1 4 9 -9 22 102
249 117 240 8 -4 9 -3 5 4 -10 16 12 54 26 46 7 -4 8 -3 4 4 -6 11 48 102 60
102 3 0 2 -6 -2 -12 -5 -9 -2 -9 9 1 18 15 23 26 7 16 -17 -10 -11 12 7 26 14
12 16 12 9 -1 -10 -17 2 -5 110 111 l79 86 -93 -94 c-50 -51 -92 -90 -92 -85
0 12 210 215 250 241 31 21 30 19 -10 -19 l-45 -42 45 36 c27 20 46 43 46 55
0 11 -3 18 -7 16 -9 -6 -71 225 -65 241 3 8 2 13 -3 10 -11 -7 -124 411 -117
430 3 8 2 13 -3 10 -12 -8 -49 176 -63 315 -9 93 -9 143 0 229 14 123 56 275
74 264 7 -4 8 -3 4 4 -9 14 42 115 54 107 5 -3 12 0 16 6 4 8 3 9 -4 5 -18
-11 -14 10 5 25 14 12 16 12 9 -1 -4 -8 8 1 26 21 18 19 49 50 68 68 19 18 28
29 20 25 -13 -7 -13 -5 -1 9 15 19 36 23 25 5 -4 -7 -3 -8 5 -4 6 4 9 11 6 16
-8 12 53 43 67 34 6 -4 8 -3 4 4 -8 14 83 44 159 51 70 7 163 -1 222 -19z m3
-95 c36 -15 76 -28 90 -28 14 0 19 -2 12 -4 -10 -4 -8 -9 7 -20 12 -8 25 -12
30 -9 24 15 240 -211 225 -235 -3 -5 1 -18 9 -30 8 -11 17 -17 19 -12 3 4 3 2
2 -4 -2 -7 6 -28 17 -47 79 -135 184 -577 263 -1115 19 -128 40 -239 47 -247
15 -18 53 -18 69 1 10 12 6 55 -16 214 l-28 199 154 328 c84 181 153 340 153
354 0 14 2 19 4 12 3 -7 28 29 57 80 28 51 61 108 74 125 13 18 20 38 16 44
-4 7 -3 9 3 6 12 -8 39 20 30 29 -16 16 116 145 151 148 10 1 41 14 70 29 128
67 246 72 362 15 36 -18 71 -32 78 -31 7 1 11 -2 7 -5 -7 -8 76 -92 86 -86 10
6 52 -54 45 -65 -3 -5 6 -34 19 -64 39 -85 58 -204 52 -322 -10 -185 -33 -265
-258 -900 -77 -214 -139 -399 -139 -410 0 -27 18 -45 46 -45 28 0 36 11 64 88
16 44 26 60 33 53 15 -15 30 -14 21 2 -4 6 12 -4 37 -24 56 -46 181 -188 174
-199 -3 -5 15 -41 41 -80 211 -327 300 -798 218 -1160 -33 -145 -114 -346
-176 -433 -11 -15 -18 -31 -14 -34 3 -3 1 -14 -5 -25 -6 -11 -13 -17 -16 -14
-7 7 -43 -23 -43 -36 0 -5 6 -6 13 -1 19 12 -47 -68 -89 -107 -26 -24 -20 -14
21 35 l59 70 -87 -84 c-47 -47 -84 -88 -81 -92 5 -9 -54 -55 -67 -51 -13 3
-142 -85 -132 -90 4 -3 3 -3 -4 -2 -19 5 -98 -43 -81 -49 7 -2 2 -5 -12 -5
-14 0 -76 -21 -138 -47 -130 -54 -285 -95 -457 -121 -167 -26 -560 -26 -725
-1 -287 44 -526 129 -703 249 -31 21 -61 37 -66 34 -10 -6 -62 33 -130 98 -63
59 -129 130 -113 122 6 -4 12 -3 12 2 0 12 -45 53 -52 47 -8 -8 -69 76 -63 86
3 4 -15 39 -39 78 -24 40 -46 68 -48 64 -3 -4 -3 -2 -1 5 1 7 -11 40 -28 73
-38 76 -93 240 -114 344 -10 44 -19 141 -22 215 -11 279 57 544 203 790 30 51
52 95 49 98 -3 3 -5 1 -5 -4 0 -5 -10 -20 -21 -34 l-21 -25 21 35 c11 19 24
34 28 33 14 -3 34 20 29 33 -6 17 25 56 127 161 45 45 85 80 89 77 11 -7 50
25 43 35 -2 4 5 7 15 7 10 0 16 -5 14 -11 -2 -5 6 -46 19 -90 23 -80 23 -80
56 -80 21 0 38 7 44 17 8 12 -19 125 -116 475 -69 252 -135 494 -146 538 -68
276 -69 528 -2 705 11 28 18 57 17 63 -1 7 -1 8 2 4 2 -4 17 13 33 38 16 26
26 51 23 57 -4 6 -3 8 3 5 5 -3 34 19 64 50 l54 56 -45 -32 -45 -33 38 36 c21
20 42 34 47 31 5 -3 27 6 49 20 107 71 266 83 391 30z m-547 -54 c-26 -26 -50
-47 -52 -44 -6 5 81 93 92 93 4 0 -14 -22 -40 -49z"/>
<path d="M2185 4700 c38 -38 72 -70 74 -70 3 0 -26 32 -64 70 -38 39 -72 70
-74 70 -3 0 26 -31 64 -70z"/>
<path d="M3175 4589 c-36 -34 -80 -80 -97 -103 -17 -23 -6 -14 26 21 31 34 78
80 104 103 26 22 44 40 40 40 -4 0 -37 -28 -73 -61z"/>
<path d="M2284 4587 c16 -20 30 -37 33 -37 7 0 -36 58 -49 66 -7 4 1 -9 16
-29z"/>
<path d="M2360 4470 c6 -11 13 -20 16 -20 2 0 0 9 -6 20 -6 11 -13 20 -16 20
-2 0 0 -9 6 -20z"/>
<path d="M2990 4360 c-6 -11 -8 -20 -6 -20 3 0 10 9 16 20 6 11 8 20 6 20 -3
0 -10 -9 -16 -20z"/>
<path d="M2950 4290 c-6 -11 -8 -20 -6 -20 3 0 10 9 16 20 6 11 8 20 6 20 -3
0 -10 -9 -16 -20z"/>
<path d="M2570 3562 c19 -16 22 -23 12 -34 -9 -12 -9 -15 1 -15 8 0 13 12 13
29 0 15 -2 26 -4 23 -3 -2 -14 0 -26 6 -17 8 -17 7 4 -9z"/>
<path d="M2560 3540 c0 -5 5 -10 10 -10 6 0 10 5 10 10 0 6 -4 10 -10 10 -5 0
-10 -4 -10 -10z"/>
<path d="M2589 3456 c0 -1 -2 -11 -5 -22 -5 -27 16 -46 36 -34 12 8 10 10 -7
10 -13 0 -23 4 -23 9 0 5 9 7 20 4 12 -3 20 0 20 7 0 7 -7 10 -15 7 -8 -4 -17
-1 -21 5 -4 6 -3 8 4 4 6 -3 13 -3 16 2 4 6 -20 14 -25 8z"/>
<path d="M1439 2978 c-7 -30 -5 -38 7 -38 9 0 12 -4 9 -10 -3 -6 1 -7 10 -3
11 4 13 8 5 13 -6 4 -10 13 -8 20 2 7 -3 15 -9 17 -7 3 -13 3 -14 1z"/>
<path d="M3680 2906 c0 -9 5 -16 10 -16 6 0 10 4 10 9 0 6 -4 13 -10 16 -5 3
-10 -1 -10 -9z"/>
<path d="M4024 2677 c16 -20 30 -37 33 -37 7 0 -36 58 -49 66 -7 4 1 -9 16
-29z"/>
<path d="M1040 2650 c-12 -16 -19 -30 -16 -30 2 0 14 14 26 30 12 17 19 30 16
30 -2 0 -14 -13 -26 -30z"/>
<path d="M970 1010 c6 -11 13 -20 16 -20 2 0 0 9 -6 20 -6 11 -13 20 -16 20
-2 0 0 -9 6 -20z"/>
<path d="M1000 960 c6 -11 13 -20 16 -20 2 0 0 9 -6 20 -6 11 -13 20 -16 20
-2 0 0 -9 6 -20z"/>
<path d="M4140 940 c-6 -11 -8 -20 -6 -20 3 0 10 9 16 20 6 11 8 20 6 20 -3 0
-10 -9 -16 -20z"/>
<path d="M1500 466 c0 -3 9 -10 20 -16 11 -6 20 -8 20 -6 0 3 -9 10 -20 16
-11 6 -20 8 -20 6z"/>
<path d="M2121 4660 c47 -47 98 -101 113 -120 15 -19 22 -26 17 -14 -13 28
-145 168 -185 197 -17 12 8 -16 55 -63z"/>
<path d="M3206 4518 l-71 -72 70 64 c39 35 74 67 80 72 5 4 5 8 1 8 -5 0 -40
-32 -80 -72z"/>
<path d="M3899 4495 c17 -33 31 -51 31 -40 0 6 -10 21 -21 35 -13 17 -17 18
-10 5z"/>
<path d="M1254 2798 c-44 -46 -90 -99 -103 -118 -17 -26 -14 -24 15 10 21 25
70 78 108 118 38 39 67 72 64 72 -3 0 -41 -37 -84 -82z"/>
<path d="M3865 2750 c111 -118 124 -131 100 -100 -37 47 -110 124 -150 159
-22 20 0 -7 50 -59z"/>
<path d="M1795 1703 c-50 -7 -72 -55 -39 -87 11 -11 35 -16 82 -16 121 0 273
-47 349 -107 22 -17 18 -18 -117 -19 -154 -1 -190 -12 -190 -59 0 -48 19 -55
149 -48 123 6 237 -6 314 -33 35 -12 43 -12 64 1 16 11 23 25 23 46 0 47 -140
181 -246 236 -121 63 -288 100 -389 86z"/>
<path d="M3472 1594 c-129 -28 -263 -94 -362 -180 -73 -62 -107 -110 -94 -131
22 -36 39 -37 136 -12 82 21 115 24 274 24 139 0 185 3 197 14 22 18 21 44 -2
65 -24 22 -191 40 -278 31 -35 -4 -63 -4 -63 0 0 11 122 63 186 79 32 8 90 18
127 21 56 6 71 12 84 31 14 22 14 26 -1 49 -15 22 -23 25 -79 24 -34 -1 -90
-7 -125 -15z"/>
<path d="M2680 1303 c-25 -9 -60 -46 -60 -63 0 -17 62 -81 97 -99 51 -26 152
5 175 54 29 65 -29 115 -132 114 -36 0 -72 -3 -80 -6z"/>
<path d="M2387 1053 c-15 -15 -5 -34 32 -58 l38 -26 6 -97 c7 -117 26 -176 74
-231 53 -62 104 -85 188 -85 56 0 80 5 120 26 101 53 167 155 188 288 11 64
12 68 50 86 48 23 67 48 50 65 -10 10 -25 6 -70 -17 -48 -24 -70 -29 -128 -29
-60 0 -78 4 -125 31 l-56 32 -39 -20 c-61 -32 -150 -35 -213 -8 -28 12 -57 28
-63 36 -12 15 -41 19 -52 7z m423 -154 c0 -52 -8 -59 -69 -59 -48 0 -61 14
-61 66 0 38 3 42 38 56 33 13 40 13 65 -1 23 -13 27 -22 27 -62z m20 -182 c24
-13 45 -28 47 -34 7 -19 -73 -65 -121 -70 -25 -3 -61 -2 -81 1 -39 8 -109 62
-99 78 4 6 25 19 48 29 60 27 151 25 206 -4z"/>
<path d="M1109 925 c15 -30 51 -71 51 -60 -1 6 -14 26 -31 45 -17 19 -26 26
-20 15z"/>
<path d="M4035 909 c-4 -6 -5 -12 -2 -15 2 -3 7 2 10 11 7 17 1 20 -8 4z"/>
<path d="M1294 715 c45 -44 97 -91 116 -104 27 -18 24 -14 -10 15 -25 21 -77
68 -116 104 -65 60 -64 59 10 -15z"/>
<path d="M3783 644 l-28 -25 33 22 c17 13 32 24 32 26 0 8 -11 1 -37 -23z"/>
</g>
</svg>
